<?xml version="1.0" encoding="UTF-8" standalone="no"?>
<!DOCTYPE svg PUBLIC "-//W3C//DTD SVG 1.1//EN"
 "http://www.w3.org/Graphics/SVG/1.1/DTD/svg11.dtd">
<!-- Generated by graphviz version 2.47.3 (20210619.1520)
 -->
<!-- Title: dependencies Pages: 1 -->
<svg width="516pt" height="247pt"
 viewBox="0.00 0.00 516.00 246.80" xmlns="http://www.w3.org/2000/svg" xmlns:xlink="http://www.w3.org/1999/xlink">
<g id="graph0" class="graph" transform="scale(1 1) rotate(0) translate(4 242.8)">
<title>dependencies</title>
<polygon fill="white" stroke="transparent" points="-4,4 -4,-242.8 512,-242.8 512,4 -4,4"/>
<text text-anchor="middle" x="254" y="-8.2" font-family="sans-serif" font-size="14.00">dependencies</text>
<g id="clust1" class="cluster">
<title>cluster_ClientListModule</title>
<polygon fill="none" stroke="black" stroke-dasharray="1,5" points="8,-32.8 8,-230.8 500,-230.8 500,-32.8 8,-32.8"/>
</g>
<g id="clust2" class="cluster">
<title>cluster_ClientListModule_declarations</title>
<polygon fill="none" stroke="black" points="338,-40.8 338,-92.8 492,-92.8 492,-40.8 338,-40.8"/>
</g>
<g id="clust4" class="cluster">
<title>cluster_ClientListModule_imports</title>
<polygon fill="none" stroke="black" points="16,-40.8 16,-92.8 330,-92.8 330,-40.8 16,-40.8"/>
</g>
<g id="clust5" class="cluster">
<title>cluster_ClientListModule_exports</title>
<polygon fill="none" stroke="black" points="164,-170.8 164,-222.8 320,-222.8 320,-170.8 164,-170.8"/>
</g>
<!-- ClientListComponent -->
<g id="node1" class="node">
<title>ClientListComponent</title>
<polygon fill="#ffffb3" stroke="black" points="483.83,-84.8 346.17,-84.8 346.17,-48.8 483.83,-48.8 483.83,-84.8"/>
<text text-anchor="middle" x="415" y="-62.6" font-family="Times,serif" font-size="14.00">ClientListComponent</text>
</g>
<!-- ClientListModule -->
<g id="node2" class="node">
<title>ClientListModule</title>
<polygon fill="#8dd3c7" stroke="black" points="299.55,-149.8 296.55,-153.8 275.55,-153.8 272.55,-149.8 184.45,-149.8 184.45,-113.8 299.55,-113.8 299.55,-149.8"/>
<text text-anchor="middle" x="242" y="-127.6" font-family="Times,serif" font-size="14.00">ClientListModule</text>
</g>
<!-- ClientListComponent&#45;&gt;ClientListModule -->
<g id="edge1" class="edge">
<title>ClientListComponent&#45;&gt;ClientListModule</title>
<path fill="none" stroke="black" d="M415,-84.91C415,-104.14 415,-131.8 415,-131.8 415,-131.8 309.61,-131.8 309.61,-131.8"/>
<polygon fill="black" stroke="black" points="309.61,-128.3 299.61,-131.8 309.61,-135.3 309.61,-128.3"/>
</g>
<!-- ClientListComponent  -->
<g id="node5" class="node">
<title>ClientListComponent </title>
<polygon fill="#fb8072" stroke="black" points="312.33,-214.8 171.67,-214.8 171.67,-178.8 312.33,-178.8 312.33,-214.8"/>
<text text-anchor="middle" x="242" y="-192.6" font-family="Times,serif" font-size="14.00">ClientListComponent </text>
</g>
<!-- ClientListModule&#45;&gt;ClientListComponent  -->
<g id="edge4" class="edge">
<title>ClientListModule&#45;&gt;ClientListComponent </title>
<path fill="none" stroke="black" stroke-dasharray="5,2" d="M242,-149.91C242,-149.91 242,-168.79 242,-168.79"/>
<polygon fill="black" stroke="black" points="238.5,-168.79 242,-178.79 245.5,-168.79 238.5,-168.79"/>
</g>
<!-- ClientListRoutingModule -->
<g id="node3" class="node">
<title>ClientListRoutingModule</title>
<polygon fill="#8dd3c7" stroke="black" points="322.17,-84.8 319.17,-88.8 298.17,-88.8 295.17,-84.8 161.83,-84.8 161.83,-48.8 322.17,-48.8 322.17,-84.8"/>
<text text-anchor="middle" x="242" y="-62.6" font-family="Times,serif" font-size="14.00">ClientListRoutingModule</text>
</g>
<!-- ClientListRoutingModule&#45;&gt;ClientListModule -->
<g id="edge2" class="edge">
<title>ClientListRoutingModule&#45;&gt;ClientListModule</title>
<path fill="none" stroke="black" d="M242,-84.91C242,-84.91 242,-103.79 242,-103.79"/>
<polygon fill="black" stroke="black" points="238.5,-103.79 242,-113.79 245.5,-103.79 238.5,-103.79"/>
</g>
<!-- LogoutBtnModule -->
<g id="node4" class="node">
<title>LogoutBtnModule</title>
<polygon fill="#8dd3c7" stroke="black" points="144.22,-84.8 141.22,-88.8 120.22,-88.8 117.22,-84.8 23.78,-84.8 23.78,-48.8 144.22,-48.8 144.22,-84.8"/>
<text text-anchor="middle" x="84" y="-62.6" font-family="Times,serif" font-size="14.00">LogoutBtnModule</text>
</g>
<!-- LogoutBtnModule&#45;&gt;ClientListModule -->
<g id="edge3" class="edge">
<title>LogoutBtnModule&#45;&gt;ClientListModule</title>
<path fill="none" stroke="black" d="M84,-84.91C84,-104.14 84,-131.8 84,-131.8 84,-131.8 174.06,-131.8 174.06,-131.8"/>
<polygon fill="black" stroke="black" points="174.06,-135.3 184.06,-131.8 174.06,-128.3 174.06,-135.3"/>
</g>
</g>
</svg>
