<svg xmlns="http://www.w3.org/2000/svg" xmlns:xlink="http://www.w3.org/1999/xlink" width="688" height="247pt" viewBox="0 0 516 246.8"><g id="graph0" class="graph" transform="scale(1 1) rotate(0) translate(4 242.8)"><title>dependencies</title><polygon fill="#fff" stroke="transparent" points="-4 4 -4 -242.8 512 -242.8 512 4 -4 4"/><text x="254" y="-8.2" font-family="sans-serif" font-size="14" text-anchor="middle">dependencies</text><g id="clust1" class="cluster"><title>cluster_ClientListModule</title><polygon fill="none" stroke="#000" stroke-dasharray="1 5" points="8 -32.8 8 -230.8 500 -230.8 500 -32.8 8 -32.8"/></g><g id="clust2" class="cluster"><title>cluster_ClientListModule_declarations</title><polygon fill="none" stroke="#000" points="338 -40.8 338 -92.8 492 -92.8 492 -40.8 338 -40.8"/></g><g id="clust4" class="cluster"><title>cluster_ClientListModule_imports</title><polygon fill="none" stroke="#000" points="16 -40.8 16 -92.8 330 -92.8 330 -40.8 16 -40.8"/></g><g id="clust5" class="cluster"><title>cluster_ClientListModule_exports</title><polygon fill="none" stroke="#000" points="164 -170.8 164 -222.8 320 -222.8 320 -170.8 164 -170.8"/></g><g id="node1" class="node"><title>ClientListComponent</title><polygon fill="#ffffb3" stroke="#000" points="483.83 -84.8 346.17 -84.8 346.17 -48.8 483.83 -48.8 483.83 -84.8"/><text x="415" y="-62.6" font-family="Times,serif" font-size="14" text-anchor="middle">ClientListComponent</text></g><g id="node2" class="node"><title>ClientListModule</title><polygon fill="#8dd3c7" stroke="#000" points="299.55 -149.8 296.55 -153.8 275.55 -153.8 272.55 -149.8 184.45 -149.8 184.45 -113.8 299.55 -113.8 299.55 -149.8"/><text x="242" y="-127.6" font-family="Times,serif" font-size="14" text-anchor="middle">ClientListModule</text></g><g id="edge1" class="edge"><title>ClientListComponent-&gt;ClientListModule</title><path fill="none" stroke="#000" d="M415,-84.91C415,-104.14 415,-131.8 415,-131.8 415,-131.8 309.61,-131.8 309.61,-131.8"/><polygon fill="#000" stroke="#000" points="309.61 -128.3 299.61 -131.8 309.61 -135.3 309.61 -128.3"/></g><g id="node5" class="node"><title>ClientListComponent</title><polygon fill="#fb8072" stroke="#000" points="312.33 -214.8 171.67 -214.8 171.67 -178.8 312.33 -178.8 312.33 -214.8"/><text x="242" y="-192.6" font-family="Times,serif" font-size="14" text-anchor="middle">ClientListComponent</text></g><g id="edge4" class="edge"><title>ClientListModule-&gt;ClientListComponent</title><path fill="none" stroke="#000" stroke-dasharray="5 2" d="M242,-149.91C242,-149.91 242,-168.79 242,-168.79"/><polygon fill="#000" stroke="#000" points="238.5 -168.79 242 -178.79 245.5 -168.79 238.5 -168.79"/></g><g id="node3" class="node"><title>ClientListRoutingModule</title><polygon fill="#8dd3c7" stroke="#000" points="322.17 -84.8 319.17 -88.8 298.17 -88.8 295.17 -84.8 161.83 -84.8 161.83 -48.8 322.17 -48.8 322.17 -84.8"/><text x="242" y="-62.6" font-family="Times,serif" font-size="14" text-anchor="middle">ClientListRoutingModule</text></g><g id="edge2" class="edge"><title>ClientListRoutingModule-&gt;ClientListModule</title><path fill="none" stroke="#000" d="M242,-84.91C242,-84.91 242,-103.79 242,-103.79"/><polygon fill="#000" stroke="#000" points="238.5 -103.79 242 -113.79 245.5 -103.79 238.5 -103.79"/></g><g id="node4" class="node"><title>LogoutBtnModule</title><polygon fill="#8dd3c7" stroke="#000" points="144.22 -84.8 141.22 -88.8 120.22 -88.8 117.22 -84.8 23.78 -84.8 23.78 -48.8 144.22 -48.8 144.22 -84.8"/><text x="84" y="-62.6" font-family="Times,serif" font-size="14" text-anchor="middle">LogoutBtnModule</text></g><g id="edge3" class="edge"><title>LogoutBtnModule-&gt;ClientListModule</title><path fill="none" stroke="#000" d="M84,-84.91C84,-104.14 84,-131.8 84,-131.8 84,-131.8 174.06,-131.8 174.06,-131.8"/><polygon fill="#000" stroke="#000" points="174.06 -135.3 184.06 -131.8 174.06 -128.3 174.06 -135.3"/></g></g></svg>