<svg xmlns="http://www.w3.org/2000/svg" xmlns:xlink="http://www.w3.org/1999/xlink" width="944" height="247pt" viewBox="0 0 708 246.8"><g id="graph0" class="graph" transform="scale(1 1) rotate(0) translate(4 242.8)"><title>dependencies</title><polygon fill="#fff" stroke="transparent" points="-4 4 -4 -242.8 704 -242.8 704 4 -4 4"/><text x="350" y="-8.2" font-family="sans-serif" font-size="14" text-anchor="middle">dependencies</text><g id="clust1" class="cluster"><title>cluster_ClientDetailsModule</title><polygon fill="none" stroke="#000" stroke-dasharray="1 5" points="8 -32.8 8 -230.8 692 -230.8 692 -32.8 8 -32.8"/></g><g id="clust5" class="cluster"><title>cluster_ClientDetailsModule_exports</title><polygon fill="none" stroke="#000" points="259 -170.8 259 -222.8 433 -222.8 433 -170.8 259 -170.8"/></g><g id="clust4" class="cluster"><title>cluster_ClientDetailsModule_imports</title><polygon fill="none" stroke="#000" points="196 -40.8 196 -92.8 684 -92.8 684 -40.8 196 -40.8"/></g><g id="clust2" class="cluster"><title>cluster_ClientDetailsModule_declarations</title><polygon fill="none" stroke="#000" points="16 -40.8 16 -92.8 188 -92.8 188 -40.8 16 -40.8"/></g><g id="node1" class="node"><title>ClientDetailsComponent</title><polygon fill="#ffffb3" stroke="#000" points="179.71 -84.8 24.29 -84.8 24.29 -48.8 179.71 -48.8 179.71 -84.8"/><text x="102" y="-62.6" font-family="Times,serif" font-size="14" text-anchor="middle">ClientDetailsComponent</text></g><g id="node2" class="node"><title>ClientDetailsModule</title><polygon fill="#8dd3c7" stroke="#000" points="412.93 -149.8 409.93 -153.8 388.93 -153.8 385.93 -149.8 279.07 -149.8 279.07 -113.8 412.93 -113.8 412.93 -149.8"/><text x="346" y="-127.6" font-family="Times,serif" font-size="14" text-anchor="middle">ClientDetailsModule</text></g><g id="edge1" class="edge"><title>ClientDetailsComponent-&gt;ClientDetailsModule</title><path fill="none" stroke="#000" d="M102,-84.91C102,-104.14 102,-131.8 102,-131.8 102,-131.8 269,-131.8 269,-131.8"/><polygon fill="#000" stroke="#000" points="269 -135.3 279 -131.8 269 -128.3 269 -135.3"/></g><g id="node6" class="node"><title>ClientDetailsComponent</title><polygon fill="#fb8072" stroke="#000" points="425.21 -214.8 266.79 -214.8 266.79 -178.8 425.21 -178.8 425.21 -214.8"/><text x="346" y="-192.6" font-family="Times,serif" font-size="14" text-anchor="middle">ClientDetailsComponent</text></g><g id="edge5" class="edge"><title>ClientDetailsModule-&gt;ClientDetailsComponent</title><path fill="none" stroke="#000" stroke-dasharray="5 2" d="M346,-149.91C346,-149.91 346,-168.79 346,-168.79"/><polygon fill="#000" stroke="#000" points="342.5 -168.79 346 -178.79 349.5 -168.79 342.5 -168.79"/></g><g id="node3" class="node"><title>ClientDetailsRoutingModule</title><polygon fill="#8dd3c7" stroke="#000" points="676.04 -84.8 673.04 -88.8 652.04 -88.8 649.04 -84.8 497.96 -84.8 497.96 -48.8 676.04 -48.8 676.04 -84.8"/><text x="587" y="-62.6" font-family="Times,serif" font-size="14" text-anchor="middle">ClientDetailsRoutingModule</text></g><g id="edge2" class="edge"><title>ClientDetailsRoutingModule-&gt;ClientDetailsModule</title><path fill="none" stroke="#000" d="M587,-84.91C587,-104.14 587,-131.8 587,-131.8 587,-131.8 422.81,-131.8 422.81,-131.8"/><polygon fill="#000" stroke="#000" points="422.81 -128.3 412.81 -131.8 422.81 -135.3 422.81 -128.3"/></g><g id="node4" class="node"><title>LogoutBtnModule</title><polygon fill="#8dd3c7" stroke="#000" points="480.22 -84.8 477.22 -88.8 456.22 -88.8 453.22 -84.8 359.78 -84.8 359.78 -48.8 480.22 -48.8 480.22 -84.8"/><text x="420" y="-62.6" font-family="Times,serif" font-size="14" text-anchor="middle">LogoutBtnModule</text></g><g id="edge3" class="edge"><title>LogoutBtnModule-&gt;ClientDetailsModule</title><path fill="none" stroke="#000" d="M386.3,-84.91C386.3,-84.91 386.3,-103.79 386.3,-103.79"/><polygon fill="#000" stroke="#000" points="382.8 -103.79 386.3 -113.79 389.8 -103.79 382.8 -103.79"/></g><g id="node5" class="node"><title>ReusableCardModule</title><polygon fill="#8dd3c7" stroke="#000" points="342.08 -84.8 339.08 -88.8 318.08 -88.8 315.08 -84.8 203.92 -84.8 203.92 -48.8 342.08 -48.8 342.08 -84.8"/><text x="273" y="-62.6" font-family="Times,serif" font-size="14" text-anchor="middle">ReusableCardModule</text></g><g id="edge4" class="edge"><title>ReusableCardModule-&gt;ClientDetailsModule</title><path fill="none" stroke="#000" d="M310.66,-84.91C310.66,-84.91 310.66,-103.79 310.66,-103.79"/><polygon fill="#000" stroke="#000" points="307.16 -103.79 310.66 -113.79 314.16 -103.79 307.16 -103.79"/></g></g></svg>