<?xml version="1.0" encoding="UTF-8" standalone="no"?>
<!DOCTYPE svg PUBLIC "-//W3C//DTD SVG 1.1//EN"
 "http://www.w3.org/Graphics/SVG/1.1/DTD/svg11.dtd">
<!-- Generated by graphviz version 2.47.3 (20210619.1520)
 -->
<!-- Title: dependencies Pages: 1 -->
<svg width="702pt" height="312pt"
 viewBox="0.00 0.00 702.00 311.80" xmlns="http://www.w3.org/2000/svg" xmlns:xlink="http://www.w3.org/1999/xlink">
<g id="graph0" class="graph" transform="scale(1 1) rotate(0) translate(4 307.8)">
<title>dependencies</title>
<polygon fill="white" stroke="transparent" points="-4,4 -4,-307.8 698,-307.8 698,4 -4,4"/>
<text text-anchor="middle" x="347" y="-8.2" font-family="sans-serif" font-size="14.00">dependencies</text>
<g id="clust1" class="cluster">
<title>cluster_AddEditModule</title>
<polygon fill="none" stroke="black" stroke-dasharray="1,5" points="8,-32.8 8,-295.8 686,-295.8 686,-32.8 8,-32.8"/>
</g>
<g id="clust5" class="cluster">
<title>cluster_AddEditModule_imports</title>
<polygon fill="none" stroke="black" points="372,-105.8 372,-157.8 678,-157.8 678,-105.8 372,-105.8"/>
</g>
<g id="clust6" class="cluster">
<title>cluster_AddEditModule_exports</title>
<polygon fill="none" stroke="black" points="292,-235.8 292,-287.8 440,-287.8 440,-235.8 292,-235.8"/>
</g>
<g id="clust3" class="cluster">
<title>cluster_AddEditModule_AddEditComponent_providers</title>
<polygon fill="none" stroke="black" points="216,-40.8 216,-157.8 364,-157.8 364,-40.8 216,-40.8"/>
</g>
<g id="clust2" class="cluster">
<title>cluster_AddEditModule_declarations</title>
<polygon fill="none" stroke="black" points="16,-105.8 16,-157.8 208,-157.8 208,-105.8 16,-105.8"/>
</g>
<!-- AddEditComponent -->
<g id="node1" class="node">
<title>AddEditComponent</title>
<polygon fill="#ffffb3" stroke="black" points="355.27,-149.8 226.73,-149.8 226.73,-113.8 355.27,-113.8 355.27,-149.8"/>
<text text-anchor="middle" x="291" y="-127.6" font-family="Times,serif" font-size="14.00">AddEditComponent</text>
</g>
<!-- AddEditModule -->
<g id="node3" class="node">
<title>AddEditModule</title>
<polygon fill="#8dd3c7" stroke="black" points="419.49,-214.8 416.49,-218.8 395.49,-218.8 392.49,-214.8 312.51,-214.8 312.51,-178.8 419.49,-178.8 419.49,-214.8"/>
<text text-anchor="middle" x="366" y="-192.6" font-family="Times,serif" font-size="14.00">AddEditModule</text>
</g>
<!-- AddEditComponent&#45;&gt;AddEditModule -->
<g id="edge1" class="edge">
<title>AddEditComponent&#45;&gt;AddEditModule</title>
<path fill="none" stroke="black" d="M333.95,-149.91C333.95,-149.91 333.95,-168.79 333.95,-168.79"/>
<polygon fill="black" stroke="black" points="330.45,-168.79 333.95,-178.79 337.45,-168.79 330.45,-168.79"/>
</g>
<!-- ValidationErrorsComponent -->
<g id="node2" class="node">
<title>ValidationErrorsComponent</title>
<polygon fill="#ffffb3" stroke="black" points="199.91,-149.8 24.09,-149.8 24.09,-113.8 199.91,-113.8 199.91,-149.8"/>
<text text-anchor="middle" x="112" y="-127.6" font-family="Times,serif" font-size="14.00">ValidationErrorsComponent</text>
</g>
<!-- ValidationErrorsComponent&#45;&gt;AddEditModule -->
<g id="edge3" class="edge">
<title>ValidationErrorsComponent&#45;&gt;AddEditModule</title>
<path fill="none" stroke="black" d="M112,-149.91C112,-169.14 112,-196.8 112,-196.8 112,-196.8 302.44,-196.8 302.44,-196.8"/>
<polygon fill="black" stroke="black" points="302.44,-200.3 312.44,-196.8 302.44,-193.3 302.44,-200.3"/>
</g>
<!-- AddEditComponent  -->
<g id="node7" class="node">
<title>AddEditComponent </title>
<polygon fill="#fb8072" stroke="black" points="432.27,-279.8 299.73,-279.8 299.73,-243.8 432.27,-243.8 432.27,-279.8"/>
<text text-anchor="middle" x="366" y="-257.6" font-family="Times,serif" font-size="14.00">AddEditComponent </text>
</g>
<!-- AddEditModule&#45;&gt;AddEditComponent  -->
<g id="edge6" class="edge">
<title>AddEditModule&#45;&gt;AddEditComponent </title>
<path fill="none" stroke="black" stroke-dasharray="5,2" d="M366,-214.91C366,-214.91 366,-233.79 366,-233.79"/>
<polygon fill="black" stroke="black" points="362.5,-233.79 366,-243.79 369.5,-233.79 362.5,-233.79"/>
</g>
<!-- DialogService -->
<g id="node4" class="node">
<title>DialogService</title>
<ellipse fill="#fdb462" stroke="black" cx="290" cy="-66.8" rx="66.05" ry="18"/>
<text text-anchor="middle" x="290" y="-62.6" font-family="Times,serif" font-size="14.00">DialogService</text>
</g>
<!-- DialogService&#45;&gt;AddEditComponent -->
<g id="edge2" class="edge">
<title>DialogService&#45;&gt;AddEditComponent</title>
<path fill="none" stroke="black" d="M291,-84.91C291,-84.91 291,-103.79 291,-103.79"/>
<polygon fill="black" stroke="black" points="287.5,-103.79 291,-113.79 294.5,-103.79 287.5,-103.79"/>
</g>
<!-- AddEditRoutingModule -->
<g id="node5" class="node">
<title>AddEditRoutingModule</title>
<polygon fill="#8dd3c7" stroke="black" points="670.11,-149.8 667.11,-153.8 646.11,-153.8 643.11,-149.8 517.89,-149.8 517.89,-113.8 670.11,-113.8 670.11,-149.8"/>
<text text-anchor="middle" x="594" y="-127.6" font-family="Times,serif" font-size="14.00">AddEditRoutingModule</text>
</g>
<!-- AddEditRoutingModule&#45;&gt;AddEditModule -->
<g id="edge4" class="edge">
<title>AddEditRoutingModule&#45;&gt;AddEditModule</title>
<path fill="none" stroke="black" d="M594,-149.91C594,-169.14 594,-196.8 594,-196.8 594,-196.8 429.74,-196.8 429.74,-196.8"/>
<polygon fill="black" stroke="black" points="429.74,-193.3 419.74,-196.8 429.74,-200.3 429.74,-193.3"/>
</g>
<!-- LogoutBtnModule -->
<g id="node6" class="node">
<title>LogoutBtnModule</title>
<polygon fill="#8dd3c7" stroke="black" points="500.22,-149.8 497.22,-153.8 476.22,-153.8 473.22,-149.8 379.78,-149.8 379.78,-113.8 500.22,-113.8 500.22,-149.8"/>
<text text-anchor="middle" x="440" y="-127.6" font-family="Times,serif" font-size="14.00">LogoutBtnModule</text>
</g>
<!-- LogoutBtnModule&#45;&gt;AddEditModule -->
<g id="edge5" class="edge">
<title>LogoutBtnModule&#45;&gt;AddEditModule</title>
<path fill="none" stroke="black" d="M399.69,-149.91C399.69,-149.91 399.69,-168.79 399.69,-168.79"/>
<polygon fill="black" stroke="black" points="396.19,-168.79 399.69,-178.79 403.19,-168.79 396.19,-168.79"/>
</g>
</g>
</svg>
