<?xml version="1.0" encoding="UTF-8" standalone="no"?>
<!DOCTYPE svg PUBLIC "-//W3C//DTD SVG 1.1//EN"
 "http://www.w3.org/Graphics/SVG/1.1/DTD/svg11.dtd">
<!-- Generated by graphviz version 2.47.3 (20210619.1520)
 -->
<!-- Title: dependencies Pages: 1 -->
<svg width="923pt" height="247pt"
 viewBox="0.00 0.00 923.00 246.80" xmlns="http://www.w3.org/2000/svg" xmlns:xlink="http://www.w3.org/1999/xlink">
<g id="graph0" class="graph" transform="scale(1 1) rotate(0) translate(4 242.8)">
<title>dependencies</title>
<polygon fill="white" stroke="transparent" points="-4,4 -4,-242.8 919,-242.8 919,4 -4,4"/>
<text text-anchor="middle" x="457.5" y="-8.2" font-family="sans-serif" font-size="14.00">dependencies</text>
<g id="clust1" class="cluster">
<title>cluster_AppModule</title>
<polygon fill="none" stroke="black" stroke-dasharray="1,5" points="8,-32.8 8,-230.8 907,-230.8 907,-32.8 8,-32.8"/>
</g>
<g id="clust8" class="cluster">
<title>cluster_AppModule_bootstrap</title>
<polygon fill="none" stroke="black" points="392,-170.8 392,-222.8 516,-222.8 516,-170.8 392,-170.8"/>
</g>
<g id="clust2" class="cluster">
<title>cluster_AppModule_declarations</title>
<polygon fill="none" stroke="black" points="462,-40.8 462,-92.8 899,-92.8 899,-40.8 462,-40.8"/>
</g>
<g id="clust6" class="cluster">
<title>cluster_AppModule_imports</title>
<polygon fill="none" stroke="black" points="16,-40.8 16,-92.8 454,-92.8 454,-40.8 16,-40.8"/>
</g>
<!-- AddEditResolverDirective -->
<g id="node1" class="node">
<title>AddEditResolverDirective</title>
<polygon fill="#ffffb3" stroke="black" points="890.79,-84.8 725.21,-84.8 725.21,-48.8 890.79,-48.8 890.79,-84.8"/>
<text text-anchor="middle" x="808" y="-62.6" font-family="Times,serif" font-size="14.00">AddEditResolverDirective</text>
</g>
<!-- AppModule -->
<g id="node4" class="node">
<title>AppModule</title>
<polygon fill="#8dd3c7" stroke="black" points="495.66,-149.8 492.66,-153.8 471.66,-153.8 468.66,-149.8 412.34,-149.8 412.34,-113.8 495.66,-113.8 495.66,-149.8"/>
<text text-anchor="middle" x="454" y="-127.6" font-family="Times,serif" font-size="14.00">AppModule</text>
</g>
<!-- AddEditResolverDirective&#45;&gt;AppModule -->
<g id="edge1" class="edge">
<title>AddEditResolverDirective&#45;&gt;AppModule</title>
<path fill="none" stroke="black" d="M808,-85.08C808,-106.12 808,-137.8 808,-137.8 808,-137.8 506,-137.8 506,-137.8"/>
<polygon fill="black" stroke="black" points="506,-134.3 496,-137.8 506,-141.3 506,-134.3"/>
</g>
<!-- AppComponent -->
<g id="node2" class="node">
<title>AppComponent</title>
<polygon fill="#ffffb3" stroke="black" points="707.94,-84.8 602.06,-84.8 602.06,-48.8 707.94,-48.8 707.94,-84.8"/>
<text text-anchor="middle" x="655" y="-62.6" font-family="Times,serif" font-size="14.00">AppComponent</text>
</g>
<!-- AppComponent&#45;&gt;AppModule -->
<g id="edge2" class="edge">
<title>AppComponent&#45;&gt;AppModule</title>
<path fill="none" stroke="black" d="M655,-84.82C655,-102.17 655,-125.8 655,-125.8 655,-125.8 506.14,-125.8 506.14,-125.8"/>
<polygon fill="black" stroke="black" points="506.14,-122.3 496.14,-125.8 506.14,-129.3 506.14,-122.3"/>
</g>
<!-- LoginComponent -->
<g id="node3" class="node">
<title>LoginComponent</title>
<polygon fill="#ffffb3" stroke="black" points="584.28,-84.8 469.72,-84.8 469.72,-48.8 584.28,-48.8 584.28,-84.8"/>
<text text-anchor="middle" x="527" y="-62.6" font-family="Times,serif" font-size="14.00">LoginComponent</text>
</g>
<!-- LoginComponent&#45;&gt;AppModule -->
<g id="edge3" class="edge">
<title>LoginComponent&#45;&gt;AppModule</title>
<path fill="none" stroke="black" d="M482.72,-84.91C482.72,-84.91 482.72,-103.79 482.72,-103.79"/>
<polygon fill="black" stroke="black" points="479.22,-103.79 482.72,-113.79 486.22,-103.79 479.22,-103.79"/>
</g>
<!-- AppComponent  -->
<g id="node8" class="node">
<title>AppComponent </title>
<polygon fill="#80b1d3" stroke="black" points="508.44,-214.8 399.56,-214.8 399.56,-178.8 508.44,-178.8 508.44,-214.8"/>
<text text-anchor="middle" x="454" y="-192.6" font-family="Times,serif" font-size="14.00">AppComponent </text>
</g>
<!-- AppModule&#45;&gt;AppComponent  -->
<g id="edge7" class="edge">
<title>AppModule&#45;&gt;AppComponent </title>
<path fill="none" stroke="black" stroke-dasharray="1,5" d="M454,-149.91C454,-149.91 454,-168.79 454,-168.79"/>
<polygon fill="black" stroke="black" points="450.5,-168.79 454,-178.79 457.5,-168.79 450.5,-168.79"/>
</g>
<!-- AppRoutingModule -->
<g id="node5" class="node">
<title>AppRoutingModule</title>
<polygon fill="#8dd3c7" stroke="black" points="446.27,-84.8 443.27,-88.8 422.27,-88.8 419.27,-84.8 317.73,-84.8 317.73,-48.8 446.27,-48.8 446.27,-84.8"/>
<text text-anchor="middle" x="382" y="-62.6" font-family="Times,serif" font-size="14.00">AppRoutingModule</text>
</g>
<!-- AppRoutingModule&#45;&gt;AppModule -->
<g id="edge4" class="edge">
<title>AppRoutingModule&#45;&gt;AppModule</title>
<path fill="none" stroke="black" d="M429.28,-84.91C429.28,-84.91 429.28,-103.79 429.28,-103.79"/>
<polygon fill="black" stroke="black" points="425.78,-103.79 429.28,-113.79 432.78,-103.79 425.78,-103.79"/>
</g>
<!-- LogoutBtnModule -->
<g id="node6" class="node">
<title>LogoutBtnModule</title>
<polygon fill="#8dd3c7" stroke="black" points="300.22,-84.8 297.22,-88.8 276.22,-88.8 273.22,-84.8 179.78,-84.8 179.78,-48.8 300.22,-48.8 300.22,-84.8"/>
<text text-anchor="middle" x="240" y="-62.6" font-family="Times,serif" font-size="14.00">LogoutBtnModule</text>
</g>
<!-- LogoutBtnModule&#45;&gt;AppModule -->
<g id="edge5" class="edge">
<title>LogoutBtnModule&#45;&gt;AppModule</title>
<path fill="none" stroke="black" d="M240,-84.82C240,-102.17 240,-125.8 240,-125.8 240,-125.8 402.23,-125.8 402.23,-125.8"/>
<polygon fill="black" stroke="black" points="402.23,-129.3 412.23,-125.8 402.23,-122.3 402.23,-129.3"/>
</g>
<!-- ReusableCardModule -->
<g id="node7" class="node">
<title>ReusableCardModule</title>
<polygon fill="#8dd3c7" stroke="black" points="162.08,-84.8 159.08,-88.8 138.08,-88.8 135.08,-84.8 23.92,-84.8 23.92,-48.8 162.08,-48.8 162.08,-84.8"/>
<text text-anchor="middle" x="93" y="-62.6" font-family="Times,serif" font-size="14.00">ReusableCardModule</text>
</g>
<!-- ReusableCardModule&#45;&gt;AppModule -->
<g id="edge6" class="edge">
<title>ReusableCardModule&#45;&gt;AppModule</title>
<path fill="none" stroke="black" d="M93,-85.08C93,-106.12 93,-137.8 93,-137.8 93,-137.8 402.24,-137.8 402.24,-137.8"/>
<polygon fill="black" stroke="black" points="402.24,-141.3 412.24,-137.8 402.24,-134.3 402.24,-141.3"/>
</g>
</g>
</svg>
