<svg xmlns="http://www.w3.org/2000/svg" xmlns:xlink="http://www.w3.org/1999/xlink" width="202pt" height="247pt" viewBox="0 0 202 246.8"><g id="graph0" class="graph" transform="scale(1 1) rotate(0) translate(4 242.8)"><title>dependencies</title><polygon fill="#fff" stroke="transparent" points="-4 4 -4 -242.8 198 -242.8 198 4 -4 4"/><text x="97" y="-8.2" font-family="sans-serif" font-size="14" text-anchor="middle">dependencies</text><g id="clust1" class="cluster"><title>cluster_LogoutBtnModule</title><polygon fill="none" stroke="#000" stroke-dasharray="1 5" points="8 -32.8 8 -230.8 186 -230.8 186 -32.8 8 -32.8"/></g><g id="clust5" class="cluster"><title>cluster_LogoutBtnModule_exports</title><polygon fill="none" stroke="#000" points="16 -170.8 16 -222.8 178 -222.8 178 -170.8 16 -170.8"/></g><g id="clust2" class="cluster"><title>cluster_LogoutBtnModule_declarations</title><polygon fill="none" stroke="#000" points="18 -40.8 18 -92.8 176 -92.8 176 -40.8 18 -40.8"/></g><g id="node1" class="node"><title>LogoutBtnComponent</title><polygon fill="#ffffb3" stroke="#000" points="168 -84.8 26 -84.8 26 -48.8 168 -48.8 168 -84.8"/><text x="97" y="-62.6" font-family="Times,serif" font-size="14" text-anchor="middle">LogoutBtnComponent</text></g><g id="node2" class="node"><title>LogoutBtnModule</title><polygon fill="#8dd3c7" stroke="#000" points="157.22 -149.8 154.22 -153.8 133.22 -153.8 130.22 -149.8 36.78 -149.8 36.78 -113.8 157.22 -113.8 157.22 -149.8"/><text x="97" y="-127.6" font-family="Times,serif" font-size="14" text-anchor="middle">LogoutBtnModule</text></g><g id="edge1" class="edge"><title>LogoutBtnComponent-&gt;LogoutBtnModule</title><path fill="none" stroke="#000" d="M97,-84.91C97,-84.91 97,-103.79 97,-103.79"/><polygon fill="#000" stroke="#000" points="93.5 -103.79 97 -113.79 100.5 -103.79 93.5 -103.79"/></g><g id="node3" class="node"><title>LogoutBtnComponent</title><polygon fill="#fb8072" stroke="#000" points="169.5 -214.8 24.5 -214.8 24.5 -178.8 169.5 -178.8 169.5 -214.8"/><text x="97" y="-192.6" font-family="Times,serif" font-size="14" text-anchor="middle">LogoutBtnComponent</text></g><g id="edge2" class="edge"><title>LogoutBtnModule-&gt;LogoutBtnComponent</title><path fill="none" stroke="#000" stroke-dasharray="5 2" d="M97,-149.91C97,-149.91 97,-168.79 97,-168.79"/><polygon fill="#000" stroke="#000" points="93.5 -168.79 97 -178.79 100.5 -168.79 93.5 -168.79"/></g></g></svg>