<svg xmlns="http://www.w3.org/2000/svg" xmlns:xlink="http://www.w3.org/1999/xlink" width="2962pt" height="428" viewBox="0 0 2962 320.8"><g id="graph0" class="graph" transform="scale(1 1) rotate(0) translate(4 316.8)"><title>dependencies</title><polygon fill="#fff" stroke="transparent" points="-4 4 -4 -316.8 2958 -316.8 2958 4 -4 4"/><text x="1477" y="-8.2" font-family="sans-serif" font-size="14" text-anchor="middle">dependencies</text><g id="clust1" class="cluster"><title>cluster_AddEditModule</title><polygon fill="none" stroke="#000" stroke-dasharray="1 5" points="1926 -32.8 1926 -304.8 2594 -304.8 2594 -32.8 1926 -32.8"/></g><g id="clust2" class="cluster"><title>cluster_AddEditModule_declarations</title><polygon fill="none" stroke="#000" points="2248 -108.8 2248 -160.8 2586 -160.8 2586 -108.8 2248 -108.8"/></g><g id="clust3" class="cluster"><title>cluster_AddEditModule_AddEditComponent_providers</title><polygon fill="none" stroke="#000" points="2438 -40.8 2438 -92.8 2586 -92.8 2586 -40.8 2438 -40.8"/></g><g id="clust5" class="cluster"><title>cluster_AddEditModule_imports</title><polygon fill="none" stroke="#000" points="1934 -108.8 1934 -160.8 2240 -160.8 2240 -108.8 1934 -108.8"/></g><g id="clust6" class="cluster"><title>cluster_AddEditModule_exports</title><polygon fill="none" stroke="#000" points="2176 -244.8 2176 -296.8 2324 -296.8 2324 -244.8 2176 -244.8"/></g><g id="clust15" class="cluster"><title>cluster_AppModule</title><polygon fill="none" stroke="#000" stroke-dasharray="1 5" points="396 -100.8 396 -304.8 1158 -304.8 1158 -100.8 396 -100.8"/></g><g id="clust16" class="cluster"><title>cluster_AppModule_declarations</title><polygon fill="none" stroke="#000" points="712 -108.8 712 -160.8 1150 -160.8 1150 -108.8 712 -108.8"/></g><g id="clust20" class="cluster"><title>cluster_AppModule_imports</title><polygon fill="none" stroke="#000" points="404 -108.8 404 -160.8 704 -160.8 704 -108.8 404 -108.8"/></g><g id="clust22" class="cluster"><title>cluster_AppModule_bootstrap</title><polygon fill="none" stroke="#000" points="820 -244.8 820 -296.8 944 -296.8 944 -244.8 820 -244.8"/></g><g id="clust30" class="cluster"><title>cluster_ClientDetailsModule</title><polygon fill="none" stroke="#000" stroke-dasharray="1 5" points="1166 -100.8 1166 -304.8 1556 -304.8 1556 -100.8 1166 -100.8"/></g><g id="clust31" class="cluster"><title>cluster_ClientDetailsModule_declarations</title><polygon fill="none" stroke="#000" points="1376 -108.8 1376 -160.8 1548 -160.8 1548 -108.8 1376 -108.8"/></g><g id="clust33" class="cluster"><title>cluster_ClientDetailsModule_imports</title><polygon fill="none" stroke="#000" points="1174 -108.8 1174 -160.8 1368 -160.8 1368 -108.8 1174 -108.8"/></g><g id="clust34" class="cluster"><title>cluster_ClientDetailsModule_exports</title><polygon fill="none" stroke="#000" points="1279 -244.8 1279 -296.8 1453 -296.8 1453 -244.8 1279 -244.8"/></g><g id="clust43" class="cluster"><title>cluster_ClientListModule</title><polygon fill="none" stroke="#000" stroke-dasharray="1 5" points="1564 -100.8 1564 -304.8 1918 -304.8 1918 -100.8 1564 -100.8"/></g><g id="clust44" class="cluster"><title>cluster_ClientListModule_declarations</title><polygon fill="none" stroke="#000" points="1756 -108.8 1756 -160.8 1910 -160.8 1910 -108.8 1756 -108.8"/></g><g id="clust46" class="cluster"><title>cluster_ClientListModule_imports</title><polygon fill="none" stroke="#000" points="1572 -108.8 1572 -160.8 1748 -160.8 1748 -108.8 1572 -108.8"/></g><g id="clust47" class="cluster"><title>cluster_ClientListModule_exports</title><polygon fill="none" stroke="#000" points="1754 -244.8 1754 -296.8 1910 -296.8 1910 -244.8 1754 -244.8"/></g><g id="clust56" class="cluster"><title>cluster_LogoutBtnModule</title><polygon fill="none" stroke="#000" stroke-dasharray="1 5" points="2602 -168.8 2602 -236.8 2946 -236.8 2946 -168.8 2602 -168.8"/></g><g id="clust57" class="cluster"><title>cluster_LogoutBtnModule_declarations</title><polygon fill="none" stroke="#000" points="2780 -176.8 2780 -228.8 2938 -228.8 2938 -176.8 2780 -176.8"/></g><g id="clust60" class="cluster"><title>cluster_LogoutBtnModule_exports</title><polygon fill="none" stroke="#000" points="2610 -176.8 2610 -228.8 2772 -228.8 2772 -176.8 2610 -176.8"/></g><g id="clust63" class="cluster"><title>cluster_ReusableCardModule</title><polygon fill="none" stroke="#000" stroke-dasharray="1 5" points="8 -168.8 8 -236.8 388 -236.8 388 -168.8 8 -168.8"/></g><g id="clust64" class="cluster"><title>cluster_ReusableCardModule_declarations</title><polygon fill="none" stroke="#000" points="204 -176.8 204 -228.8 380 -228.8 380 -176.8 204 -176.8"/></g><g id="clust67" class="cluster"><title>cluster_ReusableCardModule_exports</title><polygon fill="none" stroke="#000" points="16 -176.8 16 -228.8 196 -228.8 196 -176.8 16 -176.8"/></g><g id="node1" class="node"><title>AddEditComponent</title><polygon fill="#ffffb3" stroke="#000" points="2578.27 -152.8 2449.73 -152.8 2449.73 -116.8 2578.27 -116.8 2578.27 -152.8"/><text x="2514" y="-130.6" font-family="Times,serif" font-size="14" text-anchor="middle">AddEditComponent</text></g><g id="node3" class="node"><title>AddEditModule</title><polygon fill="#8dd3c7" stroke="#000" points="2303.49 -220.8 2300.49 -224.8 2279.49 -224.8 2276.49 -220.8 2196.51 -220.8 2196.51 -184.8 2303.49 -184.8 2303.49 -220.8"/><text x="2250" y="-198.6" font-family="Times,serif" font-size="14" text-anchor="middle">AddEditModule</text></g><g id="edge1" class="edge"><title>AddEditComponent-&gt;AddEditModule</title><path fill="none" stroke="#000" d="M2514,-153.02C2514,-173.17 2514,-202.8 2514,-202.8 2514,-202.8 2313.74,-202.8 2313.74,-202.8"/><polygon fill="#000" stroke="#000" points="2313.74 -199.3 2303.74 -202.8 2313.74 -206.3 2313.74 -199.3"/></g><g id="node2" class="node"><title>ValidationErrorsComponent</title><polygon fill="#ffffb3" stroke="#000" points="2431.91 -152.8 2256.09 -152.8 2256.09 -116.8 2431.91 -116.8 2431.91 -152.8"/><text x="2344" y="-130.6" font-family="Times,serif" font-size="14" text-anchor="middle">ValidationErrorsComponent</text></g><g id="edge3" class="edge"><title>ValidationErrorsComponent-&gt;AddEditModule</title><path fill="none" stroke="#000" d="M2279.9,-153.02C2279.9,-153.02 2279.9,-174.53 2279.9,-174.53"/><polygon fill="#000" stroke="#000" points="2276.4 -174.53 2279.9 -184.53 2283.4 -174.53 2276.4 -174.53"/></g><g id="node7" class="node"><title>AddEditComponent</title><polygon fill="#fb8072" stroke="#000" points="2316.27 -288.8 2183.73 -288.8 2183.73 -252.8 2316.27 -252.8 2316.27 -288.8"/><text x="2250" y="-266.6" font-family="Times,serif" font-size="14" text-anchor="middle">AddEditComponent</text></g><g id="edge6" class="edge"><title>AddEditModule-&gt;AddEditComponent</title><path fill="none" stroke="#000" stroke-dasharray="5 2" d="M2250,-221.02C2250,-221.02 2250,-242.53 2250,-242.53"/><polygon fill="#000" stroke="#000" points="2246.5 -242.53 2250 -252.53 2253.5 -242.53 2246.5 -242.53"/></g><g id="node4" class="node"><title>DialogService</title><ellipse cx="2512" cy="-66.8" fill="#fdb462" stroke="#000" rx="66.05" ry="18"/><text x="2512" y="-62.6" font-family="Times,serif" font-size="14" text-anchor="middle">DialogService</text></g><g id="edge2" class="edge"><title>DialogService-&gt;AddEditComponent</title><path fill="none" stroke="#000" d="M2513.94,-85.02C2513.94,-85.02 2513.94,-106.53 2513.94,-106.53"/><polygon fill="#000" stroke="#000" points="2510.44 -106.53 2513.94 -116.53 2517.44 -106.53 2510.44 -106.53"/></g><g id="node5" class="node"><title>AddEditRoutingModule</title><polygon fill="#8dd3c7" stroke="#000" points="2232.11 -152.8 2229.11 -156.8 2208.11 -156.8 2205.11 -152.8 2079.89 -152.8 2079.89 -116.8 2232.11 -116.8 2232.11 -152.8"/><text x="2156" y="-130.6" font-family="Times,serif" font-size="14" text-anchor="middle">AddEditRoutingModule</text></g><g id="edge4" class="edge"><title>AddEditRoutingModule-&gt;AddEditModule</title><path fill="none" stroke="#000" d="M2214.28,-153.02C2214.28,-153.02 2214.28,-174.53 2214.28,-174.53"/><polygon fill="#000" stroke="#000" points="2210.78 -174.53 2214.28 -184.53 2217.78 -174.53 2210.78 -174.53"/></g><g id="node6" class="node"><title>LogoutBtnModule</title><polygon fill="#8dd3c7" stroke="#000" points="2062.22 -152.8 2059.22 -156.8 2038.22 -156.8 2035.22 -152.8 1941.78 -152.8 1941.78 -116.8 2062.22 -116.8 2062.22 -152.8"/><text x="2002" y="-130.6" font-family="Times,serif" font-size="14" text-anchor="middle">LogoutBtnModule</text></g><g id="edge5" class="edge"><title>LogoutBtnModule-&gt;AddEditModule</title><path fill="none" stroke="#000" d="M2044.94,-153.07C2044.94,-171.36 2044.94,-196.8 2044.94,-196.8 2044.94,-196.8 2186.39,-196.8 2186.39,-196.8"/><polygon fill="#000" stroke="#000" points="2186.39 -200.3 2196.39 -196.8 2186.39 -193.3 2186.39 -200.3"/></g><g id="node11" class="node"><title>AppModule</title><polygon fill="#8dd3c7" stroke="#000" points="923.66 -220.8 920.66 -224.8 899.66 -224.8 896.66 -220.8 840.34 -220.8 840.34 -184.8 923.66 -184.8 923.66 -220.8"/><text x="882" y="-198.6" font-family="Times,serif" font-size="14" text-anchor="middle">AppModule</text></g><g id="edge11" class="edge"><title>LogoutBtnModule-&gt;AppModule</title><path fill="none" stroke="#000" d="M1959.06,-152.99C1959.06,-156.34 1959.06,-158.8 1959.06,-158.8 1959.06,-158.8 917.09,-158.8 917.09,-158.8 917.09,-158.8 917.09,-174.65 917.09,-174.65"/><polygon fill="#000" stroke="#000" points="913.59 -174.65 917.09 -184.65 920.59 -174.65 913.59 -174.65"/></g><g id="node16" class="node"><title>ClientDetailsModule</title><polygon fill="#8dd3c7" stroke="#000" points="1432.93 -220.8 1429.93 -224.8 1408.93 -224.8 1405.93 -220.8 1299.07 -220.8 1299.07 -184.8 1432.93 -184.8 1432.93 -220.8"/><text x="1366" y="-198.6" font-family="Times,serif" font-size="14" text-anchor="middle">ClientDetailsModule</text></g><g id="edge16" class="edge"><title>LogoutBtnModule-&gt;ClientDetailsModule</title><path fill="none" stroke="#000" d="M1976.24,-152.84C1976.24,-165.36 1976.24,-179.8 1976.24,-179.8 1976.24,-179.8 1416.61,-179.8 1416.61,-179.8 1416.61,-179.8 1416.61,-180.29 1416.61,-180.29"/><polygon fill="#000" stroke="#000" points="1413.11 -174.68 1416.61 -184.68 1420.11 -174.68 1413.11 -174.68"/></g><g id="node20" class="node"><title>ClientListModule</title><polygon fill="#8dd3c7" stroke="#000" points="1889.55 -220.8 1886.55 -224.8 1865.55 -224.8 1862.55 -220.8 1774.45 -220.8 1774.45 -184.8 1889.55 -184.8 1889.55 -220.8"/><text x="1832" y="-198.6" font-family="Times,serif" font-size="14" text-anchor="middle">ClientListModule</text></g><g id="edge21" class="edge"><title>LogoutBtnModule-&gt;ClientListModule</title><path fill="none" stroke="#000" d="M2027.76,-153.09C2027.76,-175.01 2027.76,-208.8 2027.76,-208.8 2027.76,-208.8 1899.68,-208.8 1899.68,-208.8"/><polygon fill="#000" stroke="#000" points="1899.68 -205.3 1889.68 -208.8 1899.68 -212.3 1899.68 -205.3"/></g><g id="node24" class="node"><title>LogoutBtnComponent</title><polygon fill="#fb8072" stroke="#000" points="2763.5 -220.8 2618.5 -220.8 2618.5 -184.8 2763.5 -184.8 2763.5 -220.8"/><text x="2691" y="-198.6" font-family="Times,serif" font-size="14" text-anchor="middle">LogoutBtnComponent</text></g><g id="edge24" class="edge"><title>LogoutBtnModule-&gt;LogoutBtnComponent</title><path fill="none" stroke="#000" stroke-dasharray="5 2" d="M2010.59,-152.93C2010.59,-163.51 2010.59,-174.8 2010.59,-174.8 2010.59,-174.8 2691,-174.8 2691,-174.8 2691,-174.8 2691,-175.78 2691,-175.78"/><polygon fill="#000" stroke="#000" points="2687.5 -174.59 2691 -184.59 2694.5 -174.59 2687.5 -174.59"/></g><g id="node8" class="node"><title>AddEditResolverDirective</title><polygon fill="#ffffb3" stroke="#000" points="885.79 -152.8 720.21 -152.8 720.21 -116.8 885.79 -116.8 885.79 -152.8"/><text x="803" y="-130.6" font-family="Times,serif" font-size="14" text-anchor="middle">AddEditResolverDirective</text></g><g id="edge7" class="edge"><title>AddEditResolverDirective-&gt;AppModule</title><path fill="none" stroke="#000" d="M862.91,-153.02C862.91,-153.02 862.91,-174.53 862.91,-174.53"/><polygon fill="#000" stroke="#000" points="859.41 -174.53 862.91 -184.53 866.41 -174.53 859.41 -174.53"/></g><g id="node9" class="node"><title>AppComponent</title><polygon fill="#ffffb3" stroke="#000" points="1141.94 -152.8 1036.06 -152.8 1036.06 -116.8 1141.94 -116.8 1141.94 -152.8"/><text x="1089" y="-130.6" font-family="Times,serif" font-size="14" text-anchor="middle">AppComponent</text></g><g id="edge8" class="edge"><title>AppComponent-&gt;AppModule</title><path fill="none" stroke="#000" d="M1089,-153.02C1089,-173.17 1089,-202.8 1089,-202.8 1089,-202.8 933.89,-202.8 933.89,-202.8"/><polygon fill="#000" stroke="#000" points="933.89 -199.3 923.89 -202.8 933.89 -206.3 933.89 -199.3"/></g><g id="node10" class="node"><title>LoginComponent</title><polygon fill="#ffffb3" stroke="#000" points="1018.28 -152.8 903.72 -152.8 903.72 -116.8 1018.28 -116.8 1018.28 -152.8"/><text x="961" y="-130.6" font-family="Times,serif" font-size="14" text-anchor="middle">LoginComponent</text></g><g id="edge9" class="edge"><title>LoginComponent-&gt;AppModule</title><path fill="none" stroke="#000" d="M910.35,-153.02C910.35,-153.02 910.35,-174.53 910.35,-174.53"/><polygon fill="#000" stroke="#000" points="906.85 -174.53 910.35 -184.53 913.85 -174.53 906.85 -174.53"/></g><g id="node14" class="node"><title>AppComponent</title><polygon fill="#80b1d3" stroke="#000" points="936.44 -288.8 827.56 -288.8 827.56 -252.8 936.44 -252.8 936.44 -288.8"/><text x="882" y="-266.6" font-family="Times,serif" font-size="14" text-anchor="middle">AppComponent</text></g><g id="edge13" class="edge"><title>AppModule-&gt;AppComponent</title><path fill="none" stroke="#000" stroke-dasharray="1 5" d="M882,-221.02C882,-221.02 882,-242.53 882,-242.53"/><polygon fill="#000" stroke="#000" points="878.5 -242.53 882 -252.53 885.5 -242.53 878.5 -242.53"/></g><g id="node12" class="node"><title>AppRoutingModule</title><polygon fill="#8dd3c7" stroke="#000" points="696.27 -152.8 693.27 -156.8 672.27 -156.8 669.27 -152.8 567.73 -152.8 567.73 -116.8 696.27 -116.8 696.27 -152.8"/><text x="632" y="-130.6" font-family="Times,serif" font-size="14" text-anchor="middle">AppRoutingModule</text></g><g id="edge10" class="edge"><title>AppRoutingModule-&gt;AppModule</title><path fill="none" stroke="#000" d="M632,-152.82C632,-170.17 632,-193.8 632,-193.8 632,-193.8 830.16,-193.8 830.16,-193.8"/><polygon fill="#000" stroke="#000" points="830.16 -197.3 840.16 -193.8 830.16 -190.3 830.16 -197.3"/></g><g id="node13" class="node"><title>ReusableCardModule</title><polygon fill="#8dd3c7" stroke="#000" points="550.08 -152.8 547.08 -156.8 526.08 -156.8 523.08 -152.8 411.92 -152.8 411.92 -116.8 550.08 -116.8 550.08 -152.8"/><text x="481" y="-130.6" font-family="Times,serif" font-size="14" text-anchor="middle">ReusableCardModule</text></g><g id="edge12" class="edge"><title>ReusableCardModule-&gt;AppModule</title><path fill="none" stroke="#000" d="M515.52,-153.02C515.52,-173.17 515.52,-202.8 515.52,-202.8 515.52,-202.8 830.32,-202.8 830.32,-202.8"/><polygon fill="#000" stroke="#000" points="830.32 -206.3 840.32 -202.8 830.32 -199.3 830.32 -206.3"/></g><g id="edge17" class="edge"><title>ReusableCardModule-&gt;ClientDetailsModule</title><path fill="none" stroke="#000" d="M446.48,-153C446.48,-158.83 446.48,-163.8 446.48,-163.8 446.48,-163.8 1319.62,-163.8 1319.62,-163.8 1319.62,-163.8 1319.62,-174.67 1319.62,-174.67"/><polygon fill="#000" stroke="#000" points="1316.12 -174.67 1319.62 -184.67 1323.12 -174.67 1316.12 -174.67"/></g><g id="node26" class="node"><title>ReusableCardComponent</title><polygon fill="#fb8072" stroke="#000" points="187.86 -220.8 24.14 -220.8 24.14 -184.8 187.86 -184.8 187.86 -220.8"/><text x="106" y="-198.6" font-family="Times,serif" font-size="14" text-anchor="middle">ReusableCardComponent</text></g><g id="edge26" class="edge"><title>ReusableCardModule-&gt;ReusableCardComponent</title><path fill="none" stroke="#000" stroke-dasharray="5 2" d="M411.78,-134.8C303.43,-134.8 106,-134.8 106,-134.8 106,-134.8 106,-174.58 106,-174.58"/><polygon fill="#000" stroke="#000" points="102.5 -174.58 106 -184.58 109.5 -174.58 102.5 -174.58"/></g><g id="node15" class="node"><title>ClientDetailsComponent</title><polygon fill="#ffffb3" stroke="#000" points="1539.71 -152.8 1384.29 -152.8 1384.29 -116.8 1539.71 -116.8 1539.71 -152.8"/><text x="1462" y="-130.6" font-family="Times,serif" font-size="14" text-anchor="middle">ClientDetailsComponent</text></g><g id="edge14" class="edge"><title>ClientDetailsComponent-&gt;ClientDetailsModule</title><path fill="none" stroke="#000" d="M1400.5,-153.02C1400.5,-153.02 1400.5,-174.53 1400.5,-174.53"/><polygon fill="#000" stroke="#000" points="1397 -174.53 1400.5 -184.53 1404 -174.53 1397 -174.53"/></g><g id="node18" class="node"><title>ClientDetailsComponent</title><polygon fill="#fb8072" stroke="#000" points="1445.21 -288.8 1286.79 -288.8 1286.79 -252.8 1445.21 -252.8 1445.21 -288.8"/><text x="1366" y="-266.6" font-family="Times,serif" font-size="14" text-anchor="middle">ClientDetailsComponent</text></g><g id="edge18" class="edge"><title>ClientDetailsModule-&gt;ClientDetailsComponent</title><path fill="none" stroke="#000" stroke-dasharray="5 2" d="M1366,-221.02C1366,-221.02 1366,-242.53 1366,-242.53"/><polygon fill="#000" stroke="#000" points="1362.5 -242.53 1366 -252.53 1369.5 -242.53 1362.5 -242.53"/></g><g id="node17" class="node"><title>ClientDetailsRoutingModule</title><polygon fill="#8dd3c7" stroke="#000" points="1360.04 -152.8 1357.04 -156.8 1336.04 -156.8 1333.04 -152.8 1181.96 -152.8 1181.96 -116.8 1360.04 -116.8 1360.04 -152.8"/><text x="1271" y="-130.6" font-family="Times,serif" font-size="14" text-anchor="middle">ClientDetailsRoutingModule</text></g><g id="edge15" class="edge"><title>ClientDetailsRoutingModule-&gt;ClientDetailsModule</title><path fill="none" stroke="#000" d="M1339.94,-153.02C1339.94,-153.02 1339.94,-174.53 1339.94,-174.53"/><polygon fill="#000" stroke="#000" points="1336.44 -174.53 1339.94 -184.53 1343.44 -174.53 1336.44 -174.53"/></g><g id="node19" class="node"><title>ClientListComponent</title><polygon fill="#ffffb3" stroke="#000" points="1901.83 -152.8 1764.17 -152.8 1764.17 -116.8 1901.83 -116.8 1901.83 -152.8"/><text x="1833" y="-130.6" font-family="Times,serif" font-size="14" text-anchor="middle">ClientListComponent</text></g><g id="edge19" class="edge"><title>ClientListComponent-&gt;ClientListModule</title><path fill="none" stroke="#000" d="M1832,-153.02C1832,-153.02 1832,-174.53 1832,-174.53"/><polygon fill="#000" stroke="#000" points="1828.5 -174.53 1832 -184.53 1835.5 -174.53 1828.5 -174.53"/></g><g id="node22" class="node"><title>ClientListComponent</title><polygon fill="#fb8072" stroke="#000" points="1902.33 -288.8 1761.67 -288.8 1761.67 -252.8 1902.33 -252.8 1902.33 -288.8"/><text x="1832" y="-266.6" font-family="Times,serif" font-size="14" text-anchor="middle">ClientListComponent</text></g><g id="edge22" class="edge"><title>ClientListModule-&gt;ClientListComponent</title><path fill="none" stroke="#000" stroke-dasharray="5 2" d="M1832,-221.02C1832,-221.02 1832,-242.53 1832,-242.53"/><polygon fill="#000" stroke="#000" points="1828.5 -242.53 1832 -252.53 1835.5 -242.53 1828.5 -242.53"/></g><g id="node21" class="node"><title>ClientListRoutingModule</title><polygon fill="#8dd3c7" stroke="#000" points="1740.17 -152.8 1737.17 -156.8 1716.17 -156.8 1713.17 -152.8 1579.83 -152.8 1579.83 -116.8 1740.17 -116.8 1740.17 -152.8"/><text x="1660" y="-130.6" font-family="Times,serif" font-size="14" text-anchor="middle">ClientListRoutingModule</text></g><g id="edge20" class="edge"><title>ClientListRoutingModule-&gt;ClientListModule</title><path fill="none" stroke="#000" d="M1660,-153.02C1660,-173.17 1660,-202.8 1660,-202.8 1660,-202.8 1764.25,-202.8 1764.25,-202.8"/><polygon fill="#000" stroke="#000" points="1764.25 -206.3 1774.25 -202.8 1764.25 -199.3 1764.25 -206.3"/></g><g id="node23" class="node"><title>LogoutBtnComponent</title><polygon fill="#ffffb3" stroke="#000" points="2930 -220.8 2788 -220.8 2788 -184.8 2930 -184.8 2930 -220.8"/><text x="2859" y="-198.6" font-family="Times,serif" font-size="14" text-anchor="middle">LogoutBtnComponent</text></g><g id="edge23" class="edge"><title>LogoutBtnComponent-&gt;LogoutBtnModule</title><path fill="none" stroke="#000" d="M2859,-184.61C2859,-176.52 2859,-168.8 2859,-168.8 2859,-168.8 1993.41,-168.8 1993.41,-168.8 1993.41,-168.8 1993.41,-162.99 1993.41,-162.99"/><polygon fill="#000" stroke="#000" points="1996.91 -162.99 1993.41 -152.99 1989.91 -162.99 1996.91 -162.99"/></g><g id="node25" class="node"><title>ReusableCardComponent</title><polygon fill="#ffffb3" stroke="#000" points="371.86 -220.8 212.14 -220.8 212.14 -184.8 371.86 -184.8 371.86 -220.8"/><text x="292" y="-198.6" font-family="Times,serif" font-size="14" text-anchor="middle">ReusableCardComponent</text></g><g id="edge25" class="edge"><title>ReusableCardComponent-&gt;ReusableCardModule</title><path fill="none" stroke="#000" d="M371.88,-211.8C423.46,-211.8 481,-211.8 481,-211.8 481,-211.8 481,-163.05 481,-163.05"/><polygon fill="#000" stroke="#000" points="484.5 -163.05 481 -153.05 477.5 -163.05 484.5 -163.05"/></g></g></svg>